<svg width="26" height="30" viewBox="0 0 26 30" fill="none" xmlns="http://www.w3.org/2000/svg">
<mask id="mask0_252_91" style="mask-type:luminance" maskUnits="userSpaceOnUse" x="0" y="0" width="26" height="30">
<path d="M25.26 0H0V30H25.26V0Z" fill="white"/>
</mask>
<g mask="url(#mask0_252_91)">
<path d="M21.06 28.8C19.434 30.3779 17.64 30.1321 15.93 29.3879C14.112 28.629 12.45 28.5811 10.53 29.3879C8.13896 30.42 6.86996 30.12 5.42996 28.8C-2.70004 20.43 -1.50004 7.68003 7.73996 7.20003C9.98096 7.32003 11.55 8.43903 12.87 8.53203C14.832 8.13303 16.71 6.99003 18.81 7.14003C21.3329 7.34403 23.22 8.34003 24.48 10.131C19.29 13.251 20.52 20.091 25.287 22.0111C24.3329 24.5161 23.1089 26.9911 21.057 28.8211L21.06 28.8ZM12.69 7.11003C12.447 3.39003 15.462 0.330029 18.93 0.0300293C19.407 4.32003 15.03 7.53003 12.69 7.11003Z" fill="black"/>
</g>
</svg>
