<svg width="13" height="14" viewBox="0 0 13 14" fill="none" xmlns="http://www.w3.org/2000/svg">
<path d="M3.35601 6.24367C3.19719 5.9579 2.94798 5.73295 2.64748 5.60415C2.34698 5.47534 2.01222 5.44996 1.69574 5.53199C1.37926 5.61403 1.09898 5.79883 0.898895 6.05739C0.698808 6.31596 0.590245 6.63364 0.590245 6.96058C0.590245 7.28752 0.698808 7.6052 0.898895 7.86377C1.09898 8.12233 1.37926 8.30713 1.69574 8.38917C2.01222 8.4712 2.34698 8.44582 2.64748 8.31701C2.94798 8.18821 3.19719 7.96326 3.35601 7.67749M3.35601 6.24367C3.47408 6.45618 3.54164 6.70018 3.54164 6.96058C3.54164 7.22098 3.47408 7.46563 3.35601 7.67749M3.35601 6.24367L9.63046 2.75816M3.35601 7.67749L9.63046 11.163M9.63046 2.75816C9.72245 2.93141 9.84806 3.08458 9.99995 3.20872C10.1518 3.33286 10.3269 3.42548 10.515 3.48115C10.7031 3.53683 10.9004 3.55445 11.0954 3.53298C11.2904 3.51152 11.4791 3.45139 11.6506 3.35613C11.8221 3.26086 11.9729 3.13237 12.0941 2.97816C12.2153 2.82395 12.3046 2.64712 12.3567 2.458C12.4088 2.26889 12.4227 2.07128 12.3975 1.87674C12.3723 1.6822 12.3087 1.49463 12.2102 1.32499C12.0161 0.990703 11.6985 0.745915 11.3259 0.643249C10.9532 0.540583 10.5551 0.588237 10.2172 0.775966C9.87928 0.963696 9.62851 1.27651 9.5188 1.64717C9.40908 2.01783 9.44917 2.41675 9.63046 2.75816ZM9.63046 11.163C9.53631 11.3325 9.47647 11.5188 9.45434 11.7114C9.43222 11.904 9.44824 12.0991 9.50151 12.2855C9.55477 12.4719 9.64423 12.646 9.76477 12.7978C9.88531 12.9497 10.0346 13.0763 10.2041 13.1704C10.3735 13.2646 10.5599 13.3244 10.7525 13.3465C10.9451 13.3687 11.1401 13.3526 11.3266 13.2994C11.513 13.2461 11.6871 13.1566 11.8389 13.0361C11.9907 12.9156 12.1173 12.7663 12.2115 12.5968C12.4016 12.2546 12.448 11.8508 12.3404 11.4743C12.2329 11.0979 11.9801 10.7795 11.6379 10.5894C11.2956 10.3993 10.8918 10.3529 10.5154 10.4605C10.1389 10.568 9.8206 10.8207 9.63046 11.163Z" stroke="#3A4980" stroke-width="1.1437" stroke-linecap="round" stroke-linejoin="round"/>
</svg>
