<svg width="44" height="50" viewBox="0 0 44 50" fill="none" xmlns="http://www.w3.org/2000/svg">
<path d="M22 0C13.519 0 6.59999 7.12711 6.59999 15.8632C6.59999 21.3247 9.30598 26.1743 13.4068 29.0365C5.55939 32.5037 0 40.526 0 49.8558H4.39999C4.39999 39.8167 12.254 31.7264 22 31.7264C31.7459 31.7264 39.5999 39.8167 39.5999 49.8558H43.9999C43.9999 40.526 38.4405 32.506 30.5931 29.0342C32.6861 27.5788 34.4009 25.6173 35.5875 23.3212C36.7742 21.0251 37.3964 18.4644 37.3999 15.8632C37.3999 7.12711 30.4809 0 22 0ZM22 4.53235C28.1005 4.53235 32.9999 9.57911 32.9999 15.8632C32.9999 22.1473 28.1005 27.1941 22 27.1941C15.8994 27.1941 11 22.1473 11 15.8632C11 9.57911 15.8994 4.53235 22 4.53235Z" fill="#393280"/>
</svg>
