<svg width="38" height="38" viewBox="0 0 38 38" fill="none" xmlns="http://www.w3.org/2000/svg">
<path d="M12.1598 2.28003C6.71247 2.28003 2.27979 6.71271 2.27979 12.16V25.84C2.27979 31.2873 6.71247 35.72 12.1598 35.72H25.8398C31.2871 35.72 35.7198 31.2873 35.7198 25.84V12.16C35.7198 6.71271 31.2871 2.28003 25.8398 2.28003H12.1598ZM12.1598 3.80003H25.8398C30.4655 3.80003 34.1998 7.5343 34.1998 12.16V25.84C34.1998 30.4658 30.4655 34.2 25.8398 34.2H12.1598C7.53406 34.2 3.79979 30.4658 3.79979 25.84V12.16C3.79979 7.5343 7.53406 3.80003 12.1598 3.80003ZM28.1198 8.36003C27.2803 8.36003 26.5998 9.04056 26.5998 9.88003C26.5998 10.7195 27.2803 11.4 28.1198 11.4C28.9593 11.4 29.6398 10.7195 29.6398 9.88003C29.6398 9.04056 28.9593 8.36003 28.1198 8.36003ZM18.9998 10.64C14.3917 10.64 10.6398 14.3919 10.6398 19C10.6398 23.6081 14.3917 27.36 18.9998 27.36C23.6079 27.36 27.3598 23.6081 27.3598 19C27.3598 14.3919 23.6079 10.64 18.9998 10.64ZM18.9998 12.16C22.7864 12.16 25.8398 15.2134 25.8398 19C25.8398 22.7867 22.7864 25.84 18.9998 25.84C15.2132 25.84 12.1598 22.7867 12.1598 19C12.1598 15.2134 15.2132 12.16 18.9998 12.16Z" fill="#C2EFD4"/>
</svg>
