<svg width="18" height="31" viewBox="0 0 18 31" fill="none" xmlns="http://www.w3.org/2000/svg">
<path d="M17.3585 3.67738C16.7086 4.30951 16.0191 4.72356 15.3131 4.90567C16.0563 3.92793 16.6126 2.39028 16.8783 0.578854C16.1793 1.48893 15.415 2.13154 14.6181 2.47928C14.1298 1.33259 13.4958 0.535151 12.7986 0.190649C12.1013 -0.153854 11.3729 -0.029478 10.7083 0.547602C10.0436 1.12468 9.47329 2.12777 9.07158 3.42643C8.66987 4.72509 8.4553 6.25924 8.45578 7.8294C8.45578 8.44434 8.48688 9.04021 8.5498 9.61066C7.13328 9.45748 5.74735 8.65028 4.48233 7.24166C3.2173 5.83304 2.10158 3.85461 1.20786 1.43532C0.890331 2.62945 0.723781 3.98828 0.725442 5.37124C0.725442 8.08364 1.35252 10.4798 2.31013 11.8829C1.7445 11.8435 1.19142 11.5067 0.697235 10.9009V11.001C0.696745 12.808 0.981068 14.5596 1.50188 15.9581C2.0227 17.3566 2.74787 18.3158 3.55416 18.6727C3.02983 18.9886 2.47947 19.0353 1.9456 18.8093C2.17301 20.3638 2.61574 21.7235 3.21197 22.6983C3.80819 23.6732 4.52813 24.2146 5.27121 24.2468C4.53249 25.5207 3.68667 26.462 2.78217 27.0168C1.87767 27.5717 0.932245 27.7292 0 27.4804C1.62774 29.7817 3.52287 31.0037 5.45854 31C12.0099 31 15.593 19.0763 15.593 8.73512C15.593 8.40144 15.5872 8.05822 15.5815 7.72294C16.2776 6.6155 16.8793 5.24645 17.3585 3.67897V3.67738Z" fill="white"/>
</svg>
