<svg width="41" height="50" viewBox="0 0 41 50" fill="none" xmlns="http://www.w3.org/2000/svg">
<path d="M20.5009 0C15.4123 0 11.2354 4.27915 11.2354 9.49234V11.3908H2.08475L1.96985 13.1716L0.116746 47.344L0 49.3602H41L40.8851 47.3421L39.032 13.1697L38.9152 11.3908H29.7665V9.49234C29.7665 4.27915 25.5896 0 20.5009 0ZM20.5009 3.79694C21.9753 3.79694 23.3894 4.39699 24.432 5.46508C25.4745 6.53318 26.0602 7.98183 26.0602 9.49234V11.3908H14.9416V9.49234C14.9416 7.98183 15.5273 6.53318 16.5699 5.46508C17.6125 4.39699 19.0265 3.79694 20.5009 3.79694ZM5.55932 15.1877H11.2354V20.8831H14.9416V15.1877H26.0602V20.8831H29.7665V15.1877H35.4425L37.064 45.5632H3.93971L5.55932 15.1877Z" fill="#393280"/>
</svg>
