<svg width="21" height="18" viewBox="0 0 21 18" fill="none" xmlns="http://www.w3.org/2000/svg">
<path fill-rule="evenodd" clip-rule="evenodd" d="M10.5 5.04173C8.41165 5.04173 6.71871 6.73468 6.71871 8.82303C6.71871 10.9114 8.41165 12.6043 10.5 12.6043C12.5884 12.6043 14.2813 10.9114 14.2813 8.82303C14.2813 6.73468 12.5884 5.04173 10.5 5.04173ZM8.23123 8.82303C8.23123 7.57002 9.24699 6.55425 10.5 6.55425C11.753 6.55425 12.7688 7.57002 12.7688 8.82303C12.7688 10.076 11.753 11.0918 10.5 11.0918C9.24699 11.0918 8.23123 10.076 8.23123 8.82303Z" fill="#D0D0D0"/>
<path fill-rule="evenodd" clip-rule="evenodd" d="M10.5 0C8.34118 0 6.38922 1.06783 4.80459 2.36529C3.2113 3.66984 1.9085 5.27229 1.03305 6.49175L0.960853 6.59216C0.433829 7.32446 0 7.92727 0 8.82303C0 9.71879 0.433828 10.3216 0.960853 11.0539L1.03305 11.1543C1.9085 12.3738 3.2113 13.9762 4.80459 15.2808C6.38922 16.5782 8.34118 17.6461 10.5 17.6461C12.6588 17.6461 14.6108 16.5782 16.1954 15.2808C17.7887 13.9762 19.0915 12.3738 19.967 11.1543L20.0392 11.0539C20.5662 10.3216 21 9.71879 21 8.82303C21 7.92727 20.5662 7.32447 20.0392 6.59216L19.967 6.49175C19.0915 5.27229 17.7887 3.66984 16.1954 2.36529C14.6108 1.06783 12.6588 0 10.5 0ZM2.26174 7.37382C3.09793 6.20905 4.31227 4.72324 5.76279 3.53558C7.22197 2.34084 8.8405 1.51252 10.5 1.51252C12.1595 1.51252 13.778 2.34084 15.2372 3.53558C16.6877 4.72324 17.9021 6.20905 18.7383 7.37382C19.3674 8.25023 19.4875 8.46152 19.4875 8.82303C19.4875 9.18455 19.3674 9.39584 18.7383 10.2722C17.9021 11.437 16.6877 12.9228 15.2372 14.1105C13.778 15.3052 12.1595 16.1335 10.5 16.1335C8.8405 16.1335 7.22197 15.3052 5.76279 14.1105C4.31227 12.9228 3.09793 11.437 2.26174 10.2722C1.63257 9.39584 1.51252 9.18455 1.51252 8.82303C1.51252 8.46152 1.63257 8.25023 2.26174 7.37382Z" fill="#D0D0D0"/>
</svg>
