<svg width="15" height="44" viewBox="0 0 15 44" fill="none" xmlns="http://www.w3.org/2000/svg">
<path d="M3.98047 0.233877C4.51808 -0.128528 5.09499 -0.0683201 5.61516 0.404478C6.13533 0.877275 6.56738 1.73414 6.8394 2.83243L6.93031 3.24172L7.74364 7.28239C7.99047 8.50883 8.0706 9.87045 7.97404 11.1979C7.87749 12.5253 7.60853 13.76 7.2006 14.7484L7.0372 15.111L5.75578 17.7837C5.52481 18.2727 5.69804 20.1653 6.53348 23.4011C7.28537 26.3128 7.89721 27.6725 8.19822 27.7467H8.25105L8.31616 27.7192L10.8348 25.9969C11.1733 25.7648 11.5345 25.7556 11.8752 25.9705C12.216 26.1853 12.5219 26.615 12.7563 27.2083L12.8681 27.5242L14.5353 32.6883C14.862 33.7005 15.0248 34.9314 14.9969 36.1781C14.969 37.4248 14.752 38.6131 14.3817 39.5473L14.2318 39.8934L13.5659 41.3053C12.968 42.5714 12.22 43.427 11.4109 43.7703C10.6017 44.1136 9.76556 43.9302 9.00171 43.2419C6.62439 41.0993 4.46453 36.2043 2.50248 28.6065C0.536733 20.9893 -0.280279 14.3501 0.0846125 8.66407C0.19503 6.94525 0.511597 5.32538 1.00069 3.9765C1.48979 2.62761 2.13315 1.60007 2.86245 1.00301L3.09957 0.827205L3.98047 0.233877Z" fill="white"/>
</svg>
