<svg width="16" height="35" viewBox="0 0 16 35" fill="none" xmlns="http://www.w3.org/2000/svg">
<path d="M4.68449 0C2.11305 0 0 4.6359 0 10.2916V24.7083C0 30.3576 2.11016 34.9999 4.68449 34.9999H11.2467C13.8181 34.9999 15.9312 30.364 15.9312 24.7083V10.2932C15.9312 4.64226 13.821 0 11.2467 0H4.68449ZM4.68449 3.18181H11.2467C11.6718 3.18055 12.0929 3.36359 12.4858 3.72045C12.8787 4.0773 13.2357 4.60095 13.5363 5.26141C13.8369 5.92186 14.0753 6.70613 14.2377 7.56929C14.4002 8.43245 14.4835 9.35754 14.4829 10.2916V24.7083C14.4835 25.6424 14.4002 26.5674 14.2377 27.4306C14.0753 28.2938 13.8369 29.078 13.5363 29.7385C13.2357 30.3989 12.8787 30.9226 12.4858 31.2795C12.0929 31.6363 11.6718 31.8193 11.2467 31.8181H4.68522C4.26001 31.8196 3.83885 31.6367 3.44588 31.2799C3.0529 30.9232 2.69583 30.3995 2.39513 29.7391C2.09443 29.0786 1.85601 28.2942 1.69353 27.431C1.53106 26.5677 1.44772 25.6425 1.44829 24.7083V10.2932C1.44762 9.359 1.53087 8.43374 1.69326 7.57039C1.85565 6.70705 2.09399 5.92259 2.39462 5.26197C2.69525 4.60135 3.05227 4.07755 3.44521 3.7206C3.83815 3.36365 4.25929 3.18055 4.68449 3.18181ZM12.2424 6.66271C12.1561 6.66187 12.0706 6.69857 11.9909 6.77071C11.9111 6.84285 11.8386 6.94898 11.7776 7.08299C11.7166 7.21701 11.6683 7.37623 11.6355 7.55149C11.6026 7.72674 11.5859 7.91455 11.5863 8.10407C11.5863 8.90588 11.8774 9.54543 12.2424 9.54543C12.3287 9.54648 12.4143 9.50993 12.4941 9.43789C12.574 9.36584 12.6466 9.25974 12.7076 9.12571C12.7687 8.99168 12.8171 8.83238 12.85 8.65702C12.8828 8.48166 12.8996 8.29372 12.8992 8.10407C12.8996 7.91442 12.8828 7.72648 12.85 7.55112C12.8171 7.37576 12.7687 7.21646 12.7076 7.08243C12.6466 6.9484 12.574 6.84229 12.4941 6.77025C12.4143 6.69821 12.3287 6.66165 12.2424 6.66271ZM7.96559 7.95452C5.57592 7.95452 3.62072 12.25 3.62072 17.4999C3.62072 22.7499 5.57592 27.0454 7.96559 27.0454C10.3553 27.0454 12.3105 22.7499 12.3105 17.4999C12.3105 12.25 10.3553 7.95452 7.96559 7.95452ZM7.96559 11.1363C9.57537 11.1363 10.8622 13.9634 10.8622 17.4999C10.8622 21.0365 9.57537 23.8636 7.96559 23.8636C6.35582 23.8636 5.06901 21.0365 5.06901 17.4999C5.06901 13.9634 6.35582 11.1363 7.96559 11.1363Z" fill="white"/>
</svg>
