<svg width="16" height="35" viewBox="0 0 16 35" fill="none" xmlns="http://www.w3.org/2000/svg">
<path d="M1.91391 1.20511e-06C1.6627 -0.000416777 1.41392 0.107899 1.18177 0.318761C0.949617 0.529624 0.738649 0.838902 0.560916 1.22893C0.383183 1.61895 0.242168 2.08209 0.145924 2.59187C0.0496805 3.10165 9.50471e-05 3.6481 0 4.19999C0 6.52271 0.856663 8.4477 1.91174 8.4477C2.96827 8.4477 3.82566 6.52271 3.82566 4.20317C3.82585 3.65135 3.77654 3.10486 3.68055 2.59493C3.58456 2.08499 3.44377 1.62162 3.26623 1.23127C3.08869 0.840932 2.87788 0.531278 2.64584 0.32001C2.4138 0.108742 2.16509 1.04676e-06 1.91391 1.20511e-06ZM11.2496 11.1363C9.64271 11.1363 8.72377 12.9818 8.28204 14.8177H8.2357V11.6311H5.06901V34.9999H8.36894V23.4324C8.36894 20.3843 8.47322 17.4379 10.1902 17.4379C11.8825 17.4379 11.9071 20.914 11.9071 23.6249V34.9999H15.207V22.1645C15.207 15.8836 14.5922 11.1363 11.2496 11.1363ZM0.262864 11.6295V34.9999H3.56496V11.6295H0.262864Z" fill="white"/>
</svg>
