<svg width="93" height="53" viewBox="0 0 93 53" fill="none" xmlns="http://www.w3.org/2000/svg">
<path d="M0.958413 23.2486C0.704226 23.2486 0.46045 23.0268 0.280713 22.6319C0.100976 22.237 0 21.7015 0 21.143V4.3026C0 3.74417 0.100976 3.2086 0.280713 2.81373C0.46045 2.41886 0.704226 2.19702 0.958413 2.19702H8.62572C8.87991 2.19702 9.12368 2.41886 9.30342 2.81373C9.48316 3.2086 9.58413 3.74417 9.58413 4.3026V21.143C9.58413 21.7015 9.48316 22.237 9.30342 22.6319C9.12368 23.0268 8.87991 23.2486 8.62572 23.2486H0.958413ZM14.3762 23.2486C14.122 23.2486 13.8782 23.0268 13.6985 22.6319C13.5188 22.237 13.4178 21.7015 13.4178 21.143V4.3026C13.4178 3.74417 13.5188 3.2086 13.6985 2.81373C13.8782 2.41886 14.122 2.19702 14.3762 2.19702H22.0416C22.2958 2.19702 22.5396 2.41886 22.7193 2.81373C22.899 3.2086 23 3.74417 23 4.3026V21.143C23 21.7015 22.899 22.237 22.7193 22.6319C22.5396 23.0268 22.2958 23.2486 22.0416 23.2486H14.3762ZM0.958413 52.7267C0.704226 52.7267 0.46045 52.5049 0.280713 52.11C0.100976 51.7151 0 51.1796 0 50.6211V33.7765C0 33.2181 0.100976 32.6825 0.280713 32.2876C0.46045 31.8927 0.704226 31.6709 0.958413 31.6709H8.62572C8.87991 31.6709 9.12368 31.8927 9.30342 32.2876C9.48316 32.6825 9.58413 33.2181 9.58413 33.7765V50.6211C9.58413 51.1796 9.48316 51.7151 9.30342 52.11C9.12368 52.5049 8.87991 52.7267 8.62572 52.7267H0.958413ZM14.3762 52.7267C14.122 52.7267 13.8782 52.5049 13.6985 52.11C13.5188 51.7151 13.4178 51.1796 13.4178 50.6211V33.7765C13.4178 33.2181 13.5188 32.6825 13.6985 32.2876C13.8782 31.8927 14.122 31.6709 14.3762 31.6709H22.0416C22.2958 31.6709 22.5396 31.8927 22.7193 32.2876C22.899 32.6825 23 33.2181 23 33.7765V50.6211C23 51.1796 22.899 51.7151 22.7193 52.11C22.5396 52.5049 22.2958 52.7267 22.0416 52.7267H14.3762Z" fill="#ED553B"/>
<path d="M91.4694 21.2378H65.5306C64.6853 21.2378 64 23.0443 64 25.2728V25.6976C64 27.9261 64.6853 29.7326 65.5306 29.7326H91.4694C92.3147 29.7326 93 27.9261 93 25.6976V25.2728C93 23.0443 92.3147 21.2378 91.4694 21.2378Z" fill="black"/>
<path d="M91.4694 42.4734H65.5306C64.6853 42.4734 64 44.2799 64 46.5084V46.9332C64 49.1617 64.6853 50.9682 65.5306 50.9682H91.4694C92.3147 50.9682 93 49.1617 93 46.9332V46.5084C93 44.2799 92.3147 42.4734 91.4694 42.4734Z" fill="black"/>
<path d="M91.4694 0H65.5306C64.6853 0 64 1.80655 64 4.03505V4.45979C64 6.68829 64.6853 8.49484 65.5306 8.49484H91.4694C92.3147 8.49484 93 6.68829 93 4.45979V4.03505C93 1.80655 92.3147 0 91.4694 0Z" fill="black"/>
</svg>
