<svg width="30" height="30" viewBox="0 0 30 30" fill="none" xmlns="http://www.w3.org/2000/svg">
<mask id="mask0_252_89" style="mask-type:luminance" maskUnits="userSpaceOnUse" x="0" y="0" width="30" height="30">
<path d="M29.4048 0H0V30H29.4048V0Z" fill="white"/>
</mask>
<g mask="url(#mask0_252_89)">
<path d="M29.4047 15.3446C29.4047 14.3249 29.322 13.2998 29.1456 12.2966H14.9972V18.0729H23.0993C22.7631 19.9358 21.6829 21.5839 20.101 22.6309V26.3789H24.9347C27.7733 23.7664 29.4047 19.9083 29.4047 15.3446Z" fill="#4285F4"/>
<path d="M14.9972 29.9999C19.0427 29.9999 22.4545 28.6716 24.9401 26.3787L20.1065 22.6308C18.7616 23.5458 17.0254 24.0639 15.0027 24.0639C11.0894 24.0639 7.77136 21.4237 6.58084 17.8743H1.59277V21.7379C4.13917 26.8033 9.32565 29.9999 14.9972 29.9999Z" fill="#34A853"/>
<path d="M6.57536 17.8744C5.94703 16.0115 5.94703 13.9942 6.57536 12.1313V8.26758H1.59282C-0.534684 12.5061 -0.534684 17.4996 1.59282 21.738L6.57536 17.8744Z" fill="#FBBC04"/>
<path d="M14.9972 5.9361C17.1357 5.90303 19.2025 6.70772 20.7513 8.18487L25.0339 3.90228C22.3222 1.35591 18.723 -0.044059 14.9972 3.42663e-05C9.32563 3.42663e-05 4.13917 3.1968 1.59277 8.26753L6.57532 12.1312C7.76032 8.57618 11.0839 5.9361 14.9972 5.9361Z" fill="#EA4335"/>
</g>
</svg>
