<svg width="24" height="25" viewBox="0 0 24 25" fill="none" xmlns="http://www.w3.org/2000/svg">
<path d="M11.4234 0.0235595C12.6097 -0.0426515 13.8078 0.0264699 14.9687 0.284766C17.0033 0.72496 18.9073 1.72322 20.4228 3.13039C20.4291 3.17441 20.3815 3.19914 20.359 3.2297C19.2346 4.32582 18.1269 5.43977 16.9989 6.53189C16.8978 6.48132 16.8266 6.39001 16.741 6.31907C16.1816 5.84686 15.5476 5.45614 14.8606 5.19166C14.2359 4.94391 13.5721 4.80021 12.9023 4.74092C12.1588 4.70308 11.4046 4.71436 10.6777 4.88898C9.30131 5.19566 8.02902 5.91925 7.05229 6.92079C6.27261 7.71277 5.68406 8.68047 5.31765 9.72203C3.98484 8.69321 2.64207 7.67712 1.30963 6.6483C2.59668 4.105 4.83058 2.04554 7.48807 0.945057C8.73491 0.422281 10.0725 0.114509 11.4234 0.0235595Z" fill="#E33E2B"/>
<path d="M1.2859 6.63385C1.29144 6.63749 1.3025 6.64477 1.30804 6.64841C2.64048 7.67723 3.98325 8.69331 5.31606 9.72213C5.13082 10.2827 5.00574 10.8626 4.94817 11.4494C4.94817 11.7525 4.89393 12.0552 4.936 12.3578C4.94891 12.9592 5.05555 13.5573 5.22639 14.1346C5.25259 14.2336 5.31016 14.3322 5.28322 14.4377C5.20721 14.5275 5.10168 14.5854 5.01053 14.6585C3.95742 15.465 2.90431 16.2716 1.85083 17.0777C1.6977 17.1985 1.53534 17.308 1.38959 17.4379C1.35601 17.4386 1.3228 17.4397 1.28959 17.4408L1.27188 17.4412C0.682595 16.2432 0.261941 14.955 0.104749 13.63C0.0405438 13.3445 0.0608386 13.0476 0.0113933 12.7595C-0.00447346 12.3109 -0.0026288 11.8616 0.00991702 11.4131C0.0545654 11.078 0.0508757 10.7382 0.113974 10.4053C0.192201 9.85019 0.312493 9.30121 0.462305 8.76061C0.615438 8.26803 0.782592 7.77872 0.992919 7.30688C1.08222 7.07914 1.21801 6.86996 1.2859 6.63385Z" fill="#E33E2B"/>
<path d="M12.2476 11.1576C12.2513 10.7058 12.2398 10.2536 12.2539 9.80173C16.0907 9.80573 19.9278 9.80427 23.7646 9.80246C23.934 10.6428 24.0052 11.5018 23.9997 12.3585C24.0104 14.025 23.7222 15.6996 23.1019 17.2527C22.5019 18.7566 21.571 20.1372 20.3618 21.2315C19.2426 20.3711 18.1194 19.5169 17.0002 18.6569C16.8689 18.5532 16.7346 18.4528 16.598 18.3557C16.549 18.3277 16.5324 18.2735 16.5113 18.2262C17.4275 17.6012 18.1629 16.7179 18.5803 15.6974C18.7264 15.3173 18.8633 14.9269 18.9124 14.5213C16.6925 14.5216 14.4723 14.5176 12.252 14.5235C12.2417 13.4015 12.2505 12.2796 12.2476 11.1576Z" fill="#E33E2B"/>
<path d="M5.28275 14.4376L5.31116 14.403C5.7831 15.7978 6.68529 17.0453 7.8657 17.9431C8.86272 18.7042 10.0634 19.2081 11.3151 19.3674C12.2859 19.4936 13.2788 19.426 14.2316 19.2066C15.0437 19.0203 15.8197 18.6856 16.5116 18.2265C16.5326 18.2738 16.5492 18.328 16.5983 18.356C16.7348 18.4532 16.8692 18.5536 17.0005 18.6573C18.1197 19.5173 19.2429 20.3715 20.362 21.2319C19.2901 22.2094 18.0075 22.9559 16.6319 23.4354C15.2947 23.9003 13.8759 24.1328 12.4589 24.1401C12.1637 24.1732 11.8682 24.1248 11.5726 24.128C9.10441 24.0058 6.68381 23.1098 4.73774 21.6084C3.36951 20.5617 2.23006 19.2252 1.42048 17.7154C1.37104 17.6266 1.31864 17.5382 1.28912 17.4407C1.32233 17.4396 1.35554 17.4385 1.38912 17.4378C1.53487 17.3079 1.69723 17.1984 1.85036 17.0777C2.90384 16.2715 3.95695 15.4649 5.01006 14.6584C5.1012 14.5853 5.20673 14.5274 5.28275 14.4376Z" fill="#E33E2B"/>
</svg>
