<svg width="14" height="30" viewBox="0 0 14 30" fill="none" xmlns="http://www.w3.org/2000/svg">
<path d="M4.31221 0C3.16854 0 2.07171 0.998116 1.26302 2.77477C0.45432 4.55143 0 6.96109 0 9.47367V20.5263C0 23.0389 0.45432 25.4485 1.26302 27.2252C2.07171 29.0018 3.16854 29.9999 4.31221 29.9999H9.34311C10.4868 29.9999 11.5836 29.0018 12.3923 27.2252C13.201 25.4485 13.6553 23.0389 13.6553 20.5263V12.6316C13.6553 12.2128 13.5796 11.8112 13.4448 11.5151C13.31 11.219 13.1272 11.0526 12.9366 11.0526H12.2179C12.0273 11.0526 11.8445 10.8863 11.7097 10.5901C11.5749 10.294 11.4992 9.89243 11.4992 9.47367C11.4992 6.96109 11.0449 4.55143 10.2362 2.77477C9.4275 0.998116 8.33068 0 7.18701 0H4.31221ZM4.31221 7.89472H7.18701C7.58229 7.89472 7.90571 8.60525 7.90571 9.47367C7.90571 10.3421 7.58229 11.0526 7.18701 11.0526H4.31221C3.91692 11.0526 3.5935 10.3421 3.5935 9.47367C3.5935 8.60525 3.91692 7.89472 4.31221 7.89472ZM4.31221 18.9473H9.34311C9.7384 18.9473 10.0618 19.6579 10.0618 20.5263C10.0618 21.3947 9.7384 22.1052 9.34311 22.1052H4.31221C3.91692 22.1052 3.5935 21.3947 3.5935 20.5263C3.5935 19.6579 3.91692 18.9473 4.31221 18.9473Z" fill="white"/>
</svg>
